<mxfile host="app.diagrams.net" modified="2023-09-07T03:29:54.997Z" agent="Mozilla/5.0 (Macintosh; Intel Mac OS X 10_15_7) AppleWebKit/537.36 (KHTML, like Gecko) Chrome/115.0.0.0 Safari/537.36" etag="R8ZPjJ8uhlgf4uatFaNN" version="21.7.2" type="github">
  <diagram id="C5RBs43oDa-KdzZeNtuy" name="Page-1">
    <mxGraphModel dx="1134" dy="720" grid="1" gridSize="10" guides="1" tooltips="1" connect="1" arrows="1" fold="1" page="1" pageScale="1" pageWidth="827" pageHeight="1169" math="0" shadow="0">
      <root>
        <mxCell id="WIyWlLk6GJQsqaUBKTNV-0" />
        <mxCell id="WIyWlLk6GJQsqaUBKTNV-1" parent="WIyWlLk6GJQsqaUBKTNV-0" />
        <mxCell id="WIyWlLk6GJQsqaUBKTNV-3" value="" style="rounded=1;whiteSpace=wrap;html=1;fontSize=12;glass=0;strokeWidth=1;shadow=0;fillColor=#ffe6cc;strokeColor=#d79b00;" parent="WIyWlLk6GJQsqaUBKTNV-1" vertex="1">
          <mxGeometry x="236" y="90" width="230" height="370" as="geometry" />
        </mxCell>
        <mxCell id="U596WueUlYZr3MVK7BR4-0" value="xview&lt;br&gt;backend" style="rounded=1;whiteSpace=wrap;html=1;fontSize=12;glass=0;strokeWidth=1;shadow=0;fillColor=#dae8fc;strokeColor=#6c8ebf;" vertex="1" parent="WIyWlLk6GJQsqaUBKTNV-1">
          <mxGeometry x="40" y="90" width="50" height="380" as="geometry" />
        </mxCell>
        <mxCell id="U596WueUlYZr3MVK7BR4-1" value="&lt;font style=&quot;font-size: 12px;&quot;&gt;Component AssistantButtonPanel&lt;/font&gt;" style="text;html=1;strokeColor=none;fillColor=none;align=center;verticalAlign=middle;whiteSpace=wrap;rounded=0;fontSize=16;" vertex="1" parent="WIyWlLk6GJQsqaUBKTNV-1">
          <mxGeometry x="230" y="90" width="220" height="20" as="geometry" />
        </mxCell>
        <mxCell id="U596WueUlYZr3MVK7BR4-4" style="edgeStyle=none;curved=1;rounded=0;orthogonalLoop=1;jettySize=auto;html=1;fontSize=12;startSize=8;endSize=8;" edge="1" parent="WIyWlLk6GJQsqaUBKTNV-1" source="U596WueUlYZr3MVK7BR4-3">
          <mxGeometry relative="1" as="geometry">
            <mxPoint x="90" y="170" as="targetPoint" />
          </mxGeometry>
        </mxCell>
        <mxCell id="U596WueUlYZr3MVK7BR4-3" value="&lt;font style=&quot;font-size: 11px;&quot;&gt;useRequestActionMap&lt;/font&gt;" style="rounded=0;whiteSpace=wrap;html=1;fontSize=16;" vertex="1" parent="WIyWlLk6GJQsqaUBKTNV-1">
          <mxGeometry x="256" y="150" width="120" height="40" as="geometry" />
        </mxCell>
        <mxCell id="U596WueUlYZr3MVK7BR4-6" value="&lt;font style=&quot;font-size: 10px;&quot;&gt;fetch action/hmi&lt;/font&gt;" style="text;html=1;strokeColor=none;fillColor=none;align=center;verticalAlign=middle;whiteSpace=wrap;rounded=0;fontSize=16;" vertex="1" parent="WIyWlLk6GJQsqaUBKTNV-1">
          <mxGeometry x="105" y="140" width="90" height="30" as="geometry" />
        </mxCell>
        <mxCell id="U596WueUlYZr3MVK7BR4-9" value="" style="curved=1;endArrow=classic;html=1;rounded=0;fontSize=12;startSize=8;endSize=8;exitX=1;exitY=0.25;exitDx=0;exitDy=0;" edge="1" parent="WIyWlLk6GJQsqaUBKTNV-1" source="U596WueUlYZr3MVK7BR4-3">
          <mxGeometry width="50" height="50" relative="1" as="geometry">
            <mxPoint x="316" y="330" as="sourcePoint" />
            <mxPoint x="376" y="170" as="targetPoint" />
            <Array as="points">
              <mxPoint x="396" y="140" />
              <mxPoint x="426" y="170" />
              <mxPoint x="396" y="190" />
            </Array>
          </mxGeometry>
        </mxCell>
        <mxCell id="U596WueUlYZr3MVK7BR4-10" style="edgeStyle=none;curved=1;rounded=0;orthogonalLoop=1;jettySize=auto;html=1;fontSize=12;startSize=8;endSize=8;startArrow=classic;startFill=1;endArrow=none;endFill=0;exitX=0;exitY=0.75;exitDx=0;exitDy=0;" edge="1" parent="WIyWlLk6GJQsqaUBKTNV-1" source="U596WueUlYZr3MVK7BR4-3">
          <mxGeometry relative="1" as="geometry">
            <mxPoint x="220" y="180" as="sourcePoint" />
            <mxPoint x="90" y="180" as="targetPoint" />
          </mxGeometry>
        </mxCell>
        <mxCell id="U596WueUlYZr3MVK7BR4-13" value="" style="rounded=1;whiteSpace=wrap;html=1;fontSize=12;glass=0;strokeWidth=1;shadow=0;fillColor=#d5e8d4;strokeColor=#82b366;" vertex="1" parent="WIyWlLk6GJQsqaUBKTNV-1">
          <mxGeometry x="491" y="140" width="190" height="200" as="geometry" />
        </mxCell>
        <mxCell id="U596WueUlYZr3MVK7BR4-14" value="&lt;span style=&quot;color: rgb(0, 0, 0); font-family: Helvetica; font-size: 12px; font-style: normal; font-variant-ligatures: normal; font-variant-caps: normal; font-weight: 400; letter-spacing: normal; orphans: 2; text-align: center; text-indent: 0px; text-transform: none; widows: 2; word-spacing: 0px; -webkit-text-stroke-width: 0px; text-decoration-thickness: initial; text-decoration-style: initial; text-decoration-color: initial; float: none; display: inline !important;&quot;&gt;Mobx AssistantStore&lt;/span&gt;" style="text;whiteSpace=wrap;html=1;fontSize=16;" vertex="1" parent="WIyWlLk6GJQsqaUBKTNV-1">
          <mxGeometry x="516" y="150" width="210" height="40" as="geometry" />
        </mxCell>
        <mxCell id="U596WueUlYZr3MVK7BR4-23" value="" style="edgeStyle=none;curved=1;rounded=0;orthogonalLoop=1;jettySize=auto;html=1;fontSize=12;startSize=8;endSize=8;" edge="1" parent="WIyWlLk6GJQsqaUBKTNV-1" source="U596WueUlYZr3MVK7BR4-11" target="U596WueUlYZr3MVK7BR4-22">
          <mxGeometry relative="1" as="geometry" />
        </mxCell>
        <mxCell id="U596WueUlYZr3MVK7BR4-11" value="&lt;span style=&quot;font-size: 11px;&quot;&gt;setRequestActionMap&lt;/span&gt;" style="rounded=0;whiteSpace=wrap;html=1;fontSize=16;" vertex="1" parent="WIyWlLk6GJQsqaUBKTNV-1">
          <mxGeometry x="526" y="200" width="120" height="40" as="geometry" />
        </mxCell>
        <mxCell id="U596WueUlYZr3MVK7BR4-17" value="" style="endArrow=none;html=1;rounded=0;fontSize=12;startSize=8;endSize=8;curved=1;entryX=0.5;entryY=1;entryDx=0;entryDy=0;" edge="1" parent="WIyWlLk6GJQsqaUBKTNV-1" target="U596WueUlYZr3MVK7BR4-3">
          <mxGeometry width="50" height="50" relative="1" as="geometry">
            <mxPoint x="316" y="220" as="sourcePoint" />
            <mxPoint x="416" y="280" as="targetPoint" />
          </mxGeometry>
        </mxCell>
        <mxCell id="U596WueUlYZr3MVK7BR4-18" value="" style="endArrow=none;html=1;rounded=0;fontSize=12;startSize=8;endSize=8;curved=1;" edge="1" parent="WIyWlLk6GJQsqaUBKTNV-1">
          <mxGeometry width="50" height="50" relative="1" as="geometry">
            <mxPoint x="316" y="220" as="sourcePoint" />
            <mxPoint x="466" y="220" as="targetPoint" />
          </mxGeometry>
        </mxCell>
        <mxCell id="U596WueUlYZr3MVK7BR4-20" value="" style="endArrow=classic;html=1;rounded=0;fontSize=12;startSize=8;endSize=8;curved=1;entryX=0;entryY=0.5;entryDx=0;entryDy=0;" edge="1" parent="WIyWlLk6GJQsqaUBKTNV-1" target="U596WueUlYZr3MVK7BR4-11">
          <mxGeometry width="50" height="50" relative="1" as="geometry">
            <mxPoint x="466" y="220" as="sourcePoint" />
            <mxPoint x="416" y="280" as="targetPoint" />
          </mxGeometry>
        </mxCell>
        <mxCell id="U596WueUlYZr3MVK7BR4-21" value="&lt;font style=&quot;font-size: 10px;&quot;&gt;action&lt;/font&gt;" style="text;html=1;strokeColor=none;fillColor=none;align=center;verticalAlign=middle;whiteSpace=wrap;rounded=0;fontSize=16;" vertex="1" parent="WIyWlLk6GJQsqaUBKTNV-1">
          <mxGeometry x="326" y="190" width="90" height="30" as="geometry" />
        </mxCell>
        <mxCell id="U596WueUlYZr3MVK7BR4-26" style="edgeStyle=none;curved=1;rounded=0;orthogonalLoop=1;jettySize=auto;html=1;exitX=0;exitY=0.5;exitDx=0;exitDy=0;fontSize=12;startSize=8;endSize=8;" edge="1" parent="WIyWlLk6GJQsqaUBKTNV-1" source="U596WueUlYZr3MVK7BR4-22" target="U596WueUlYZr3MVK7BR4-25">
          <mxGeometry relative="1" as="geometry" />
        </mxCell>
        <mxCell id="U596WueUlYZr3MVK7BR4-22" value="&lt;font style=&quot;font-size: 12px;&quot;&gt;@computed requestActionMap&lt;/font&gt;" style="whiteSpace=wrap;html=1;fontSize=16;rounded=0;" vertex="1" parent="WIyWlLk6GJQsqaUBKTNV-1">
          <mxGeometry x="501" y="270" width="170" height="40" as="geometry" />
        </mxCell>
        <mxCell id="U596WueUlYZr3MVK7BR4-28" style="edgeStyle=none;curved=1;rounded=0;orthogonalLoop=1;jettySize=auto;html=1;exitX=0.5;exitY=1;exitDx=0;exitDy=0;entryX=0.5;entryY=0;entryDx=0;entryDy=0;fontSize=12;startSize=8;endSize=8;" edge="1" parent="WIyWlLk6GJQsqaUBKTNV-1" source="U596WueUlYZr3MVK7BR4-25" target="U596WueUlYZr3MVK7BR4-27">
          <mxGeometry relative="1" as="geometry" />
        </mxCell>
        <mxCell id="U596WueUlYZr3MVK7BR4-25" value="&lt;font style=&quot;font-size: 12px;&quot;&gt;render&lt;/font&gt;" style="rounded=0;whiteSpace=wrap;html=1;fontSize=16;" vertex="1" parent="WIyWlLk6GJQsqaUBKTNV-1">
          <mxGeometry x="268.5" y="275" width="95" height="30" as="geometry" />
        </mxCell>
        <mxCell id="U596WueUlYZr3MVK7BR4-30" style="edgeStyle=none;curved=1;rounded=0;orthogonalLoop=1;jettySize=auto;html=1;fontSize=12;startSize=8;endSize=8;" edge="1" parent="WIyWlLk6GJQsqaUBKTNV-1" source="U596WueUlYZr3MVK7BR4-27" target="U596WueUlYZr3MVK7BR4-29">
          <mxGeometry relative="1" as="geometry" />
        </mxCell>
        <mxCell id="U596WueUlYZr3MVK7BR4-27" value="&lt;font style=&quot;font-size: 12px;&quot;&gt;hybridButtonPanel&lt;/font&gt;" style="rounded=0;whiteSpace=wrap;html=1;fontSize=16;" vertex="1" parent="WIyWlLk6GJQsqaUBKTNV-1">
          <mxGeometry x="252.25" y="340" width="127.5" height="30" as="geometry" />
        </mxCell>
        <mxCell id="U596WueUlYZr3MVK7BR4-31" style="edgeStyle=none;curved=1;rounded=0;orthogonalLoop=1;jettySize=auto;html=1;fontSize=12;startSize=8;endSize=8;entryX=0.068;entryY=1.111;entryDx=0;entryDy=0;entryPerimeter=0;" edge="1" parent="WIyWlLk6GJQsqaUBKTNV-1" source="U596WueUlYZr3MVK7BR4-29" target="U596WueUlYZr3MVK7BR4-32">
          <mxGeometry relative="1" as="geometry">
            <mxPoint x="90" y="410" as="targetPoint" />
          </mxGeometry>
        </mxCell>
        <mxCell id="U596WueUlYZr3MVK7BR4-29" value="&lt;font style=&quot;font-size: 12px;&quot;&gt;click event&lt;/font&gt;" style="rounded=0;whiteSpace=wrap;html=1;fontSize=16;" vertex="1" parent="WIyWlLk6GJQsqaUBKTNV-1">
          <mxGeometry x="256" y="397" width="123.75" height="30" as="geometry" />
        </mxCell>
        <mxCell id="U596WueUlYZr3MVK7BR4-32" value="&lt;font style=&quot;font-size: 10px;&quot;&gt;webstocket hybridRequest&lt;/font&gt;" style="text;html=1;strokeColor=none;fillColor=none;align=center;verticalAlign=middle;whiteSpace=wrap;rounded=0;fontSize=16;" vertex="1" parent="WIyWlLk6GJQsqaUBKTNV-1">
          <mxGeometry x="80" y="380" width="160" height="30" as="geometry" />
        </mxCell>
        <mxCell id="U596WueUlYZr3MVK7BR4-36" value="&lt;font style=&quot;font-size: 10px;&quot;&gt;ajax polling every 500ms&lt;/font&gt;" style="text;html=1;strokeColor=none;fillColor=none;align=center;verticalAlign=middle;whiteSpace=wrap;rounded=0;fontSize=16;" vertex="1" parent="WIyWlLk6GJQsqaUBKTNV-1">
          <mxGeometry x="416" y="150" width="64" height="40" as="geometry" />
        </mxCell>
      </root>
    </mxGraphModel>
  </diagram>
</mxfile>
